<?xml version="1.0" encoding="utf-8"?>
<!-- Generator: Adobe Illustrator 24.3.0, SVG Export Plug-In . SVG Version: 6.00 Build 0)  -->
<svg version="1.1" id="Layer_1" xmlns="http://www.w3.org/2000/svg" xmlns:xlink="http://www.w3.org/1999/xlink" x="0px" y="0px"
	 viewBox="0 0 841.89 595.28" style="enable-background:new 0 0 841.89 595.28;" xml:space="preserve">
<style type="text/css">
	.st0{fill:#FFFFFF;}
	.st1{fill:none;}
</style>
<g id="logotayp">
	<g>
		<g>
			<polygon class="st0" points="166.06,257.07 119.91,297.41 166.06,337.76 166.06,357.27 97.63,297.46 97.71,297.41 97.63,297.37 
				166.06,237.56 			"/>
		</g>
		<g>
			<polygon class="st0" points="364.47,297.41 364.55,297.46 296.12,357.27 296.12,337.76 342.27,297.41 296.12,257.07 
				296.12,237.56 364.55,297.37 			"/>
		</g>
		<path class="st0" d="M267.46,224.57l-23.62,38.23c-1.48-3-3.31-5.73-5.5-8.14c-3.52-3.96-7.92-7.04-13.09-9.03
			c-5.28-2.2-11.22-3.18-17.82-3.18h-19.36v81.62h17.92l-28.53,46.19h14.83l89.99-145.69H267.46z M214.21,310.77
			c-2.11,0.35-4.37,0.54-6.78,0.54h-6.6v-56.1h6.6c9.46,0,16.61,2.63,21.45,8.03c3.18,3.5,5.27,8.22,6.14,13.84L214.21,310.77z"/>
		<g id="C_6_">
			<path class="st0" d="M258.66,281.41c6.6,0,12.76,2.2,17.71,6.27v-15.07c-0.55-0.22-1.21-0.55-1.76-0.77
				c-4.73-2.06-9.76-3.05-14.89-3.17l-8.48,13.72C253.63,281.75,256.12,281.41,258.66,281.41z"/>
			<path class="st0" d="M258.66,337.51c-7.48,0-14.52-2.97-19.8-8.25c-3.97-3.97-6.63-8.94-7.71-14.34l-8.49,13.75
				c1.91,3.56,4.32,6.75,7.18,9.61c3.74,3.74,8.03,6.71,12.98,8.8c4.95,2.09,10.34,3.19,15.84,3.19s10.89-1.1,15.95-3.19
				c2.31-0.99,4.51-2.2,6.6-3.52v-17.38c-0.88,1.1-1.76,2.09-2.75,3.08C273.18,334.54,266.14,337.51,258.66,337.51z"/>
		</g>
	</g>
	<g>
		<path class="st0" d="M419.6,263.37c0,5.94-1.75,11.04-5.09,14.71c-1.81,2.04-4.07,3.62-6.73,4.64c-2.72,1.08-5.77,1.64-9.17,1.64
			h-7.75h-2.21v-41.99h6.56h3.4c3.4,0,6.45,0.51,9.17,1.64c2.66,1.02,4.92,2.6,6.73,4.64C417.84,252.33,419.6,257.43,419.6,263.37z
			 M413.03,263.37c0-4.3-1.19-7.87-3.4-10.3c-2.49-2.77-6.17-4.13-11.04-4.13h-3.4v28.86h3.4c4.87,0,8.55-1.41,11.04-4.13
			C411.84,271.24,413.03,267.61,413.03,263.37z"/>
		<path class="st0" d="M434.82,259.46h15.34v5.94h-15.34v13.02h18.62v5.94h-18.68h-6.51v-41.99h6.51h18.68v5.89h-18.62V259.46z"/>
		<path class="st0" d="M478.68,270.05l11.04-27.67h7.13l-18,43.86l-19.24-43.86h7.24L478.68,270.05z"/>
		<path class="st0" d="M510.65,259.46h15.34v5.94h-15.34v13.02h18.62v5.94H510.6h-6.51v-41.99h6.51h18.68v5.89h-18.62V259.46z"/>
		<path class="st0" d="M562.55,284.37h-17.6h-6.51v-41.99h6.56v36.05h17.54V284.37z"/>
		<path class="st0" d="M577.6,282.72c-2.55-1.08-4.75-2.6-6.68-4.53c-1.92-1.92-3.45-4.13-4.53-6.68s-1.64-5.32-1.64-8.15
			c0-2.83,0.57-5.6,1.64-8.21c1.08-2.49,2.6-4.7,4.53-6.68c1.92-1.92,4.13-3.4,6.68-4.47c2.55-1.08,5.32-1.64,8.15-1.64
			c2.83,0,5.6,0.57,8.21,1.64c2.49,1.08,4.7,2.55,6.68,4.47c1.92,1.98,3.4,4.19,4.47,6.68c1.08,2.6,1.64,5.38,1.64,8.21
			c0,2.83-0.57,5.6-1.64,8.15s-2.55,4.75-4.47,6.68c-1.98,1.92-4.19,3.45-6.68,4.53c-2.6,1.08-5.38,1.64-8.21,1.64
			C582.92,284.37,580.15,283.8,577.6,282.72z M575.57,253.18c-2.72,2.72-4.25,6.34-4.25,10.19c0,3.85,1.53,7.47,4.25,10.19
			s6.34,4.24,10.19,4.24c3.85,0,7.47-1.53,10.19-4.24s4.24-6.34,4.24-10.19c0-3.85-1.53-7.47-4.24-10.19s-6.34-4.25-10.19-4.25
			C581.91,248.94,578.28,250.46,575.57,253.18z"/>
		<path class="st0" d="M621.12,242.37h6.91c5.55,0,8.77,2.26,10.47,4.13c2.26,2.49,3.4,5.83,3.4,9.73c0,3.91-1.13,7.3-3.4,9.73
			c-1.7,1.92-4.92,4.19-10.47,4.19h-5.89v14.21h-6.56v-41.99H621.12z M636.01,256.24c0-1.64-0.34-4.02-1.87-5.72
			c-1.36-1.47-3.4-2.26-6.11-2.26h-5.89v15.96h5.89c2.72,0,4.75-0.74,6.11-2.21C635.67,260.31,636.01,257.94,636.01,256.24z"/>
		<path class="st0" d="M655.31,259.46h15.34v5.94h-15.34v13.02h18.62v5.94h-18.68h-6.51v-41.99h6.51h18.68v5.89h-18.62V259.46z"/>
		<path class="st0" d="M712.47,284.37h-7.41l-10.58-14.21h-4.81v14.21h-6.57v-41.99h5.55h6.9c5.55,0,8.77,2.26,10.47,4.19
			c2.21,2.43,3.4,5.83,3.4,9.73c0,3.85-1.19,7.24-3.4,9.68c-1.02,1.13-2.6,2.43-4.87,3.23L712.47,284.37z M695.54,264.27
			c2.72,0,4.75-0.79,6.06-2.26c1.58-1.7,1.87-4.08,1.87-5.72c0-1.7-0.28-4.07-1.87-5.77c-1.3-1.47-3.34-2.21-6.06-2.21h-5.89v15.96
			H695.54z"/>
		<path class="st0" d="M419.48,347.07c-1.08,0.68-2.21,1.3-3.4,1.81c-2.6,1.08-5.38,1.64-8.21,1.64c-2.83,0-5.6-0.57-8.15-1.64
			c-2.55-1.08-4.75-2.6-6.68-4.53c-1.92-1.92-3.45-4.13-4.53-6.68s-1.64-5.32-1.64-8.15c0-2.83,0.57-5.6,1.64-8.21
			c1.08-2.49,2.6-4.75,4.53-6.68c1.92-1.92,4.13-3.45,6.68-4.47c2.55-1.13,5.32-1.64,8.15-1.64c2.83,0,5.6,0.51,8.21,1.64
			c0.28,0.11,0.62,0.28,0.91,0.4v7.75c-2.55-2.09-5.72-3.23-9.11-3.23c-3.85,0-7.47,1.47-10.19,4.25
			c-2.72,2.72-4.24,6.34-4.24,10.19c0,3.85,1.53,7.47,4.24,10.19c2.72,2.72,6.34,4.24,10.19,4.24c3.85,0,7.47-1.53,10.19-4.24
			c0.51-0.51,0.96-1.02,1.42-1.58V347.07z"/>
		<path class="st0" d="M438.5,348.88c-2.55-1.08-4.75-2.6-6.68-4.53c-1.92-1.92-3.45-4.13-4.53-6.68s-1.64-5.32-1.64-8.15
			c0-2.83,0.57-5.6,1.64-8.21c1.08-2.49,2.6-4.7,4.53-6.68c1.92-1.92,4.13-3.4,6.68-4.47c2.55-1.08,5.32-1.64,8.15-1.64
			c2.83,0,5.6,0.57,8.21,1.64c2.49,1.08,4.7,2.55,6.68,4.47c1.92,1.98,3.4,4.19,4.47,6.68c1.08,2.6,1.64,5.38,1.64,8.21
			c0,2.83-0.57,5.6-1.64,8.15s-2.55,4.75-4.47,6.68c-1.98,1.92-4.19,3.45-6.68,4.53c-2.6,1.08-5.38,1.64-8.21,1.64
			C443.82,350.52,441.05,349.96,438.5,348.88z M436.46,319.34c-2.72,2.72-4.24,6.34-4.24,10.19c0,3.85,1.53,7.47,4.24,10.19
			c2.72,2.72,6.34,4.24,10.19,4.24s7.47-1.53,10.19-4.24c2.72-2.72,4.25-6.34,4.25-10.19c0-3.85-1.53-7.47-4.25-10.19
			c-2.72-2.72-6.34-4.25-10.19-4.25S439.18,316.62,436.46,319.34z"/>
		<path class="st0" d="M483.04,323.53v27h-6.56v-43.97l26.37,28.92v-26.94h6.62v43.92L483.04,323.53z"/>
		<path class="st0" d="M541.9,342.09c-1.19,4.08-4.87,7.3-9.45,8.21c-0.85,0.17-1.7,0.23-2.55,0.23c-1.7,0-3.4-0.28-4.98-0.91
			c-2.66-1.08-4.98-2.83-6.96-5.38l5.21-4.07c1.19,1.58,2.6,2.72,4.13,3.28c1.25,0.51,2.6,0.62,3.85,0.34
			c2.15-0.4,3.91-1.81,4.41-3.51c0.57-1.92-0.74-3.62-1.92-4.75c-1.87-1.75-4.92-4.75-5.15-4.98l-5.15-4.87
			c-1.58-1.53-2.66-3.23-3.23-5.04c-0.57-1.75-0.62-3.62-0.11-5.32c0.51-1.81,1.58-3.4,3.11-4.7c1.42-1.19,3.17-2.04,5.04-2.38
			c2.04-0.45,4.19-0.28,6.22,0.45c2.15,0.85,4.08,2.26,5.72,4.24l-5.15,4.13c-2.15-2.6-4.36-2.6-5.55-2.38
			c-1.47,0.28-2.72,1.25-3.06,2.43c-0.23,0.79-0.17,2.09,1.58,3.79l7.02,6.73c1.02,1.02,2.26,2.21,3.17,3.06
			c1.81,1.64,3.06,3.51,3.68,5.49C542.41,338.13,542.46,340.17,541.9,342.09z"/>
		<path class="st0" d="M576.59,314.42h-11.55v36.11h-6.62v-36.11h-11.55v-5.89h29.71V314.42z"/>
		<path class="st0" d="M601.04,341.53H586.1l-3.57,9h-7.24l18.28-43.92l18.22,43.92h-7.19L601.04,341.53z M598.66,335.64
			l-5.09-12.79l-5.09,12.79H598.66z"/>
		<path class="st0" d="M625.6,323.53v27h-6.56v-43.97l26.37,28.92v-26.94h6.62v43.92L625.6,323.53z"/>
		<path class="st0" d="M689.21,314.42h-11.54v36.11h-6.62v-36.11H659.5v-5.89h29.71V314.42z"/>
		<path class="st0" d="M701.86,308.53v41.99h-5.67v-41.99H701.86z"/>
		<path class="st0" d="M718.19,323.53v27h-6.57v-43.97l26.37,28.92v-26.94h6.62v43.92L718.19,323.53z"/>
	</g>
	<rect x="436.09" y="297.41" class="st1" width="2.35" height="0"/>
</g>
</svg>
